<?xml version="1.0" encoding="iso-8859-1"?>
<!-- Generator: Adobe Illustrator 19.0.0, SVG Export Plug-In . SVG Version: 6.00 Build 0)  -->
<svg version="1.1" id="Capa_1" xmlns="http://www.w3.org/2000/svg" xmlns:xlink="http://www.w3.org/1999/xlink" x="0px" y="0px"
	 viewBox="0 0 512 512" style="enable-background:#ffffff;" xml:space="preserve">
<g>
	<g>
		<path style="fill:#ffffff" d="M501.333,448H10.667C4.776,448,0,452.776,0,458.667C0.035,488.107,23.893,511.965,53.333,512h405.333
			c29.441-0.035,53.298-23.893,53.333-53.333C512,452.776,507.224,448,501.333,448z M458.667,490.667H53.333
			c-13.557-0.017-25.639-8.558-30.176-21.333h465.685C484.306,482.109,472.224,490.65,458.667,490.667z"/>
	</g>
</g>
<g>
	<g>
		<path style="fill:#ffffff" d="M64,128c-17.673,0-32,14.327-32,32v298.667h21.333V160c0-5.891,4.776-10.667,10.667-10.667h21.333V128H64z"/>
	</g>
</g>
<g>
	<g>
		<path style="fill:#ffffff" d="M448,128h-21.333v21.333H448c5.891,0,10.667,4.776,10.667,10.667v298.667H480V160C480,142.327,465.673,128,448,128z"/>
	</g>
</g>
<g>
	<g>
		<rect style="fill:#ffffff" x="213.333" y="458.667" width="85.333" height="21.333"/>
	</g>
</g>
<g>
	<g>
		<path style="fill:#ffffff" d="M373.333,0H202.667c-2.829,0.001-5.541,1.125-7.541,3.125l-85.333,85.333c-2,2-3.125,4.713-3.125,7.541v256
			c0,17.673,14.327,32,32,32H224v-21.333h-85.333c-5.891,0-10.667-4.776-10.667-10.667V100.416l79.083-79.083h166.251
			C379.224,21.333,384,26.109,384,32v320c0,5.891-4.776,10.667-10.667,10.667H288V384h85.333c17.673,0,32-14.327,32-32V32
			C405.333,14.327,391.006,0,373.333,0z"/>
	</g>
</g>
<g>
	<g>
		<path style="fill:#ffffff" d="M192,10.667v64c0,5.891-4.776,10.667-10.667,10.667H160v21.333h21.333c17.673,0,32-14.327,32-32v-64H192z"/>
	</g>
</g>
<g>
	<g>
		<path style="fill:#ffffff" d="M263.541,205.792c-2-1.999-4.711-3.122-7.539-3.123c-5.891-0.001-10.668,4.773-10.669,10.664v213.333h21.333V239.083
			l45.792,45.792l15.083-15.083L263.541,205.792z"/>
	</g>
</g>
<g>
	<g>
		
			<rect style="fill:#ffffff" x="178.741" y="234.673" transform="matrix(0.7071 -0.7071 0.7071 0.7071 -107.8747 230.2463)" width="90.507" height="21.333"/>
	</g>
</g>
<g>
	<g>
		<rect style="fill:#ffffff" x="341.333" y="42.667" width="21.333" height="21.333"/>
	</g>
</g>
<g>
	<g>
		<rect style="fill:#ffffff" x="298.667" y="42.667" width="21.333" height="21.333"/>
	</g>
</g>
<g>
	<g>
		<rect style="fill:#ffffff" x="341.333" y="85.333" width="21.333" height="21.333"/>
	</g>
</g>
<g>
</g>
<g>
</g>
<g>
</g>
<g>
</g>
<g>
</g>
<g>
</g>
<g>
</g>
<g>
</g>
<g>
</g>
<g>
</g>
<g>
</g>
<g>
</g>
<g>
</g>
<g>
</g>
<g>
</g>
</svg>
