<svg xmlns="http://www.w3.org/2000/svg" xmlns:xlink="http://www.w3.org/1999/xlink" version="1.1" x="0px" y="0px" viewBox="0 0 60 75" style="enable-background:new 0 0 60 60;" xml:space="preserve"><g><g><path d="M23.03,9c0.256,0,0.512-0.098,0.707-0.293l5.293-5.293V24c0,0.552,0.448,1,1,1s1-0.448,1-1V3.414l5.293,5.293    C36.518,8.902,36.774,9,37.03,9s0.512-0.098,0.707-0.293c0.391-0.391,0.391-1.023,0-1.414l-7-7    c-0.092-0.092-0.203-0.165-0.325-0.216S30.16,0,30.03,0l0,0l0,0c-0.13,0-0.26,0.027-0.382,0.077    c-0.123,0.051-0.233,0.124-0.325,0.216l-7,7c-0.391,0.391-0.391,1.023,0,1.414C22.519,8.902,22.774,9,23.03,9z"/><path d="M59.531,28.135L52.389,24l7.142-4.135c0.306-0.177,0.496-0.503,0.499-0.857c0.002-0.354-0.182-0.683-0.486-0.865l-16-9.6    c-0.473-0.285-1.088-0.131-1.372,0.343s-0.131,1.088,0.343,1.372l14.545,8.727l-6.667,3.86l-16.772-9.71    c-0.478-0.277-1.089-0.113-1.367,0.364c-0.276,0.478-0.113,1.09,0.365,1.366L48.396,24L30.028,34.634L11.66,24l15.779-9.135    c0.478-0.276,0.641-0.888,0.364-1.366c-0.276-0.478-0.888-0.642-1.366-0.364l-16.772,9.71l-6.667-3.86l14.545-8.727    c0.474-0.284,0.627-0.898,0.343-1.372s-0.898-0.627-1.372-0.343l-16,9.6c-0.304,0.182-0.488,0.511-0.485,0.865    c0.002,0.354,0.192,0.68,0.499,0.857L7.669,24l-7.142,4.135c-0.307,0.177-0.497,0.503-0.499,0.857    c-0.003,0.354,0.182,0.683,0.485,0.865l8.515,5.109V47c0,0.351,0.184,0.677,0.485,0.857l20,12    c0.002,0.001,0.005,0.002,0.007,0.003s0.003,0.003,0.006,0.004c0.049,0.029,0.103,0.045,0.155,0.064    c0.029,0.011,0.056,0.028,0.086,0.036c0.085,0.023,0.173,0.035,0.261,0.035c0.085,0,0.171-0.011,0.254-0.033    c0.019-0.005,0.035-0.016,0.054-0.022c0.063-0.021,0.126-0.042,0.185-0.075l0.001-0.001c0,0,0.001,0,0.002-0.001l21-12    c0.312-0.178,0.504-0.509,0.504-0.868V34.366l7.514-4.509c0.304-0.182,0.488-0.511,0.486-0.865    C60.027,28.639,59.837,28.312,59.531,28.135z M9.667,25.156L28.035,35.79l-6.996,4.05L2.999,29.016L9.667,25.156z M39.021,39.84    l-6.995-4.05l18.368-10.634l0.136,0.078c0,0,0.001,0,0.002,0.001l6.53,3.78L39.021,39.84z"/></g></g><text x="0" y="75" fill="#000000" font-size="5px" font-weight="bold" font-family="'Helvetica Neue', Helvetica, Arial-Unicode, Arial, Sans-serif">Created by Prettycons</text><text x="0" y="80" fill="#000000" font-size="5px" font-weight="bold" font-family="'Helvetica Neue', Helvetica, Arial-Unicode, Arial, Sans-serif">from the Noun Project</text></svg>